<?xml version="1.0" encoding="us-ascii" standalone="no"?><svg xmlns="http://www.w3.org/2000/svg" xmlns:xlink="http://www.w3.org/1999/xlink" contentStyleType="text/css" height="680px" preserveAspectRatio="none" style="width:1163px;height:680px;background:#FFFFFF;" version="1.1" viewBox="0 0 1163 680" width="1163px" zoomAndPan="magnify"><defs/><g><!--cluster Namespace::Descriptor--><g id="cluster_Namespace::Descriptor"><path d="M9.5,6 L197.5,6 A5.25,5.25 0 0 1 201,9.5 L208,28.2969 L774.5,28.2969 A3.5,3.5 0 0 1 778,31.7969 L778,496.5 A3.5,3.5 0 0 1 774.5,500 L9.5,500 A3.5,3.5 0 0 1 6,496.5 L6,9.5 A3.5,3.5 0 0 1 9.5,6 " fill="none" style="stroke:#696969;stroke-width:1.0;"/><line style="stroke:#696969;stroke-width:1.0;" x1="6" x2="208" y1="28.2969" y2="28.2969"/><text fill="#000000" font-family="sans-serif" font-size="14" font-weight="bold" lengthAdjust="spacing" textLength="189" x="10" y="20.9951">Namespace::Descriptor</text></g><!--class Functions--><g id="elem_Functions"><rect codeLine="4" fill="#F1F1F1" height="145.7813" id="Functions" rx="3.5" ry="3.5" style="stroke:#181818;stroke-width:0.5;" width="263" x="260.5" y="41"/><ellipse cx="353.25" cy="57" fill="#ADD1B2" rx="11" ry="11" style="stroke:#181818;stroke-width:1.0;"/><path d="M355.5938,52.6719 C354.6563,52.2344 354.0625,52.0938 353.1875,52.0938 C350.5625,52.0938 348.5625,54.1719 348.5625,56.8906 L348.5625,58.0156 C348.5625,60.5938 350.6719,62.4844 353.5625,62.4844 C354.7813,62.4844 355.9375,62.1875 356.6875,61.6406 C357.2656,61.2344 357.5938,60.7813 357.5938,60.3906 C357.5938,59.9375 357.2031,59.5469 356.7344,59.5469 C356.5156,59.5469 356.3125,59.625 356.125,59.8125 C355.6719,60.2969 355.6719,60.2969 355.4844,60.3906 C355.0625,60.6563 354.375,60.7813 353.6094,60.7813 C351.5625,60.7813 350.2656,59.6875 350.2656,57.9844 L350.2656,56.8906 C350.2656,55.1094 351.5156,53.7969 353.25,53.7969 C353.8281,53.7969 354.4375,53.9531 354.9063,54.2031 C355.3906,54.4844 355.5625,54.7031 355.6563,55.1094 C355.7188,55.5156 355.75,55.6406 355.8906,55.7656 C356.0313,55.9063 356.2656,56.0156 356.4844,56.0156 C356.75,56.0156 357.0156,55.875 357.1875,55.6563 C357.2969,55.5 357.3281,55.3125 357.3281,54.8906 L357.3281,53.4688 C357.3281,53.0313 357.3125,52.9063 357.2188,52.75 C357.0625,52.4844 356.7813,52.3438 356.4844,52.3438 C356.1875,52.3438 355.9844,52.4375 355.7656,52.75 L355.5938,52.6719 Z " fill="#000000"/><text fill="#000000" font-family="sans-serif" font-size="14" lengthAdjust="spacing" textLength="69" x="373.75" y="61.8467">Functions</text><line style="stroke:#181818;stroke-width:0.5;" x1="261.5" x2="522.5" y1="73" y2="73"/><line style="stroke:#181818;stroke-width:0.5;" x1="261.5" x2="522.5" y1="81" y2="81"/><ellipse cx="271.5" cy="94.6484" fill="#84BE84" rx="3" ry="3" style="stroke:#038048;stroke-width:1.0;"/><text fill="#000000" font-family="sans-serif" font-size="14" lengthAdjust="spacing" textLength="203" x="280.5" y="97.9951">void compute_single_atom()</text><ellipse cx="271.5" cy="110.9453" fill="#84BE84" rx="3" ry="3" style="stroke:#038048;stroke-width:1.0;"/><text fill="#000000" font-family="sans-serif" font-size="14" lengthAdjust="spacing" textLength="109" x="280.5" y="114.292">void compute()</text><ellipse cx="271.5" cy="127.2422" fill="#84BE84" rx="3" ry="3" style="stroke:#038048;stroke-width:1.0;"/><text fill="#000000" font-family="sans-serif" font-size="14" lengthAdjust="spacing" textLength="104" x="280.5" y="130.5889">void jacobian()</text><ellipse cx="271.5" cy="143.5391" fill="#84BE84" rx="3" ry="3" style="stroke:#038048;stroke-width:1.0;"/><text fill="#000000" font-family="sans-serif" font-size="14" lengthAdjust="spacing" textLength="199" x="280.5" y="146.8857">void gradient_single_atom()</text><ellipse cx="271.5" cy="159.8359" fill="#84BE84" rx="3" ry="3" style="stroke:#038048;stroke-width:1.0;"/><text fill="#000000" font-family="sans-serif" font-size="14" lengthAdjust="spacing" textLength="237" x="280.5" y="163.1826">void num_gradient_single_atom()</text><ellipse cx="271.5" cy="176.1328" fill="#84BE84" rx="3" ry="3" style="stroke:#038048;stroke-width:1.0;"/><text fill="#000000" font-family="sans-serif" font-size="14" lengthAdjust="spacing" textLength="105" x="280.5" y="179.4795">void gradient()</text></g><!--class AvailableDescriptor--><g id="elem_AvailableDescriptor"><rect codeLine="13" fill="#F1F1F1" height="113.1875" id="AvailableDescriptor" rx="3.5" ry="3.5" style="stroke:#181818;stroke-width:0.5;" width="188" x="298" y="222.5"/><ellipse cx="319.3" cy="238.5" fill="#EB937F" rx="11" ry="11" style="stroke:#181818;stroke-width:1.0;"/><path d="M318.0969,239.375 L319.55,239.375 L319.55,239.4844 C319.55,239.8906 319.5813,240.0469 319.6594,240.2031 C319.8156,240.4531 320.0969,240.6094 320.3938,240.6094 C320.6438,240.6094 320.9094,240.4688 321.0656,240.25 C321.1906,240.0938 321.2219,239.9375 321.2219,239.4844 L321.2219,237.5625 C321.2219,237.4063 321.2219,237.3594 321.2063,237.2031 C321.1438,236.7344 320.8313,236.4219 320.3781,236.4219 C320.1281,236.4219 319.8625,236.5625 319.6906,236.7813 C319.5813,236.9531 319.55,237.1094 319.55,237.5625 L319.55,237.6875 L318.0969,237.6875 L318.0969,235.2813 L322.0813,235.2813 L322.0813,236.1406 C322.0813,236.5469 322.1125,236.7188 322.1906,236.875 C322.3625,237.125 322.6438,237.2813 322.925,237.2813 C323.1906,237.2813 323.4563,237.1406 323.6281,236.9219 C323.7375,236.75 323.7688,236.6094 323.7688,236.1406 L323.7688,233.5938 L316.1438,233.5938 C315.7063,233.5938 315.5813,233.6094 315.425,233.7031 C315.175,233.8594 315.0188,234.1563 315.0188,234.4375 C315.0188,234.7188 315.1594,234.9688 315.3781,235.1406 C315.5344,235.25 315.7219,235.2813 316.1438,235.2813 L316.3938,235.2813 L316.3938,241.7969 L316.1438,241.7969 C315.7375,241.7969 315.5813,241.8125 315.425,241.9219 C315.175,242.0938 315.0188,242.3594 315.0188,242.6563 C315.0188,242.9219 315.1594,243.1719 315.3781,243.3281 C315.5188,243.4531 315.7531,243.5 316.1438,243.5 L324.1438,243.5 L324.1438,240.9219 C324.1438,240.4844 324.1125,240.3438 324.0344,240.1875 C323.8625,239.9375 323.5813,239.7813 323.3,239.7813 C323.0344,239.7813 322.7688,239.8906 322.5969,240.1406 C322.4875,240.2969 322.4563,240.4375 322.4563,240.9219 L322.4563,241.7969 L318.0969,241.7969 L318.0969,239.375 Z " fill="#000000"/><text fill="#000000" font-family="sans-serif" font-size="14" lengthAdjust="spacing" textLength="142" x="334.7" y="243.3467">AvailableDescriptor</text><line style="stroke:#181818;stroke-width:0.5;" x1="299" x2="485" y1="254.5" y2="254.5"/><text fill="#000000" font-family="sans-serif" font-size="14" lengthAdjust="spacing" textLength="176" x="304" y="271.4951">KindSymmetryFunctions</text><text fill="#000000" font-family="sans-serif" font-size="14" lengthAdjust="spacing" textLength="115" x="304" y="287.792">KindBispectrum</text><text fill="#000000" font-family="sans-serif" font-size="14" lengthAdjust="spacing" textLength="71" x="304" y="304.0889">KindSOAP</text><text fill="#000000" font-family="sans-serif" font-size="14" lengthAdjust="spacing" textLength="46" x="304" y="320.3857">KindXi</text><line style="stroke:#181818;stroke-width:0.5;" x1="299" x2="485" y1="327.6875" y2="327.6875"/></g><!--class DescriptorKind--><g id="elem_DescriptorKind"><rect codeLine="20" fill="#F1F1F1" height="113.1875" id="DescriptorKind" rx="3.5" ry="3.5" style="stroke:#181818;stroke-width:0.5;" width="740" x="22" y="370.5"/><ellipse cx="333.25" cy="386.5" fill="#ADD1B2" rx="11" ry="11" style="stroke:#181818;stroke-width:1.0;"/><path d="M335.5938,382.1719 C334.6563,381.7344 334.0625,381.5938 333.1875,381.5938 C330.5625,381.5938 328.5625,383.6719 328.5625,386.3906 L328.5625,387.5156 C328.5625,390.0938 330.6719,391.9844 333.5625,391.9844 C334.7813,391.9844 335.9375,391.6875 336.6875,391.1406 C337.2656,390.7344 337.5938,390.2813 337.5938,389.8906 C337.5938,389.4375 337.2031,389.0469 336.7344,389.0469 C336.5156,389.0469 336.3125,389.125 336.125,389.3125 C335.6719,389.7969 335.6719,389.7969 335.4844,389.8906 C335.0625,390.1563 334.375,390.2813 333.6094,390.2813 C331.5625,390.2813 330.2656,389.1875 330.2656,387.4844 L330.2656,386.3906 C330.2656,384.6094 331.5156,383.2969 333.25,383.2969 C333.8281,383.2969 334.4375,383.4531 334.9063,383.7031 C335.3906,383.9844 335.5625,384.2031 335.6563,384.6094 C335.7188,385.0156 335.75,385.1406 335.8906,385.2656 C336.0313,385.4063 336.2656,385.5156 336.4844,385.5156 C336.75,385.5156 337.0156,385.375 337.1875,385.1563 C337.2969,385 337.3281,384.8125 337.3281,384.3906 L337.3281,382.9688 C337.3281,382.5313 337.3125,382.4063 337.2188,382.25 C337.0625,381.9844 336.7813,381.8438 336.4844,381.8438 C336.1875,381.8438 335.9844,381.9375 335.7656,382.25 L335.5938,382.1719 Z " fill="#000000"/><text fill="#000000" font-family="sans-serif" font-size="14" lengthAdjust="spacing" textLength="109" x="353.75" y="391.3467">DescriptorKind</text><line style="stroke:#181818;stroke-width:0.5;" x1="23" x2="761" y1="402.5" y2="402.5"/><text fill="#000000" font-family="sans-serif" font-size="14" lengthAdjust="spacing" textLength="64" x="28" y="419.4951">int width</text><text fill="#000000" font-family="sans-serif" font-size="14" lengthAdjust="spacing" textLength="259" x="28" y="435.792">AvailableDescriptor descriptor_kind</text><line style="stroke:#181818;stroke-width:0.5;" x1="23" x2="761" y1="443.0938" y2="443.0938"/><ellipse cx="33" cy="456.7422" fill="#84BE84" rx="3" ry="3" style="stroke:#038048;stroke-width:1.0;"/><text fill="#000000" font-family="sans-serif" font-size="14" lengthAdjust="spacing" textLength="714" x="42" y="460.0889">void compute(int idx,int n_atoms, int *species, int *n_list, int n_neigh, double *coords,double *desc)</text><ellipse cx="33" cy="473.0391" fill="#84BE84" rx="3" ry="3" style="stroke:#038048;stroke-width:1.0;"/><text fill="#000000" font-family="sans-serif" font-size="14" lengthAdjust="spacing" textLength="246" x="42" y="476.3857">DescriptorKind* initDescriptor(...)</text></g><!--class SymmetryFunctions--><g id="elem_SymmetryFunctions"><rect codeLine="34" fill="#F1F1F1" height="96.8906" id="SymmetryFunctions" rx="3.5" ry="3.5" style="stroke:#181818;stroke-width:0.5;" width="334" x="822" y="180.5"/><ellipse cx="914.25" cy="196.5" fill="#B4A7E5" rx="11" ry="11" style="stroke:#181818;stroke-width:1.0;"/><path d="M915.2031,193.2813 L916.9219,193.2813 C917.3125,193.2813 917.5,193.25 917.625,193.1719 C917.8906,193.0156 918.0313,192.7344 918.0313,192.4375 C918.0313,192.1719 917.9219,191.9063 917.6875,191.7344 C917.5156,191.625 917.375,191.5938 916.9219,191.5938 L911.7813,191.5938 C911.3438,191.5938 911.2188,191.6094 911.0625,191.7031 C910.8125,191.8594 910.6563,192.1563 910.6563,192.4375 C910.6563,192.7188 910.7969,192.9688 911.0156,193.1406 C911.1719,193.25 911.3594,193.2813 911.7813,193.2813 L913.5,193.2813 L913.5,199.7969 L911.7813,199.7969 C911.3438,199.7969 911.2188,199.8125 911.0625,199.9219 C910.8125,200.0781 910.6563,200.3594 910.6563,200.6563 C910.6563,200.9063 910.7969,201.1719 911.0156,201.3281 C911.1719,201.4531 911.375,201.5 911.7813,201.5 L916.9219,201.5 C917.6719,201.5 918.0313,201.2188 918.0313,200.6563 C918.0313,200.375 917.9219,200.125 917.6875,199.9531 C917.5156,199.8281 917.375,199.7969 916.9219,199.7969 L915.2031,199.7969 L915.2031,193.2813 Z " fill="#000000"/><text fill="#000000" font-family="sans-serif" font-size="14" font-style="italic" lengthAdjust="spacing" textLength="141" x="934.75" y="201.3467">SymmetryFunctions</text><line style="stroke:#181818;stroke-width:0.5;" x1="823" x2="1155" y1="212.5" y2="212.5"/><ellipse cx="833" cy="226.1484" fill="none" rx="3" ry="3" style="stroke:#038048;stroke-width:1.0;"/><text fill="#000000" font-family="sans-serif" font-size="14" lengthAdjust="spacing" textLength="75" x="842" y="229.4951">&lt;params&gt;</text><ellipse cx="833" cy="242.4453" fill="none" rx="3" ry="3" style="stroke:#038048;stroke-width:1.0;"/><text fill="#000000" font-family="sans-serif" font-size="14" lengthAdjust="spacing" textLength="308" x="842" y="245.792">descriptor_kind = KindSymmetryFunctions</text><line style="stroke:#181818;stroke-width:0.5;" x1="823" x2="1155" y1="253.0938" y2="253.0938"/><ellipse cx="833" cy="266.7422" fill="#84BE84" rx="3" ry="3" style="stroke:#038048;stroke-width:1.0;"/><text fill="#000000" font-family="sans-serif" font-size="14" lengthAdjust="spacing" textLength="307" x="842" y="270.0889">void clone_empty(DescriptorKind* d_desc)</text></g><!--class SOAP--><g id="elem_SOAP"><rect codeLine="40" fill="#F1F1F1" height="96.8906" id="SOAP" rx="3.5" ry="3.5" style="stroke:#181818;stroke-width:0.5;" width="333" x="822.5" y="312.5"/><ellipse cx="965.75" cy="328.5" fill="#B4A7E5" rx="11" ry="11" style="stroke:#181818;stroke-width:1.0;"/><path d="M966.7031,325.2813 L968.4219,325.2813 C968.8125,325.2813 969,325.25 969.125,325.1719 C969.3906,325.0156 969.5313,324.7344 969.5313,324.4375 C969.5313,324.1719 969.4219,323.9063 969.1875,323.7344 C969.0156,323.625 968.875,323.5938 968.4219,323.5938 L963.2813,323.5938 C962.8438,323.5938 962.7188,323.6094 962.5625,323.7031 C962.3125,323.8594 962.1563,324.1563 962.1563,324.4375 C962.1563,324.7188 962.2969,324.9688 962.5156,325.1406 C962.6719,325.25 962.8594,325.2813 963.2813,325.2813 L965,325.2813 L965,331.7969 L963.2813,331.7969 C962.8438,331.7969 962.7188,331.8125 962.5625,331.9219 C962.3125,332.0781 962.1563,332.3594 962.1563,332.6563 C962.1563,332.9063 962.2969,333.1719 962.5156,333.3281 C962.6719,333.4531 962.875,333.5 963.2813,333.5 L968.4219,333.5 C969.1719,333.5 969.5313,333.2188 969.5313,332.6563 C969.5313,332.375 969.4219,332.125 969.1875,331.9531 C969.0156,331.8281 968.875,331.7969 968.4219,331.7969 L966.7031,331.7969 L966.7031,325.2813 Z " fill="#000000"/><text fill="#000000" font-family="sans-serif" font-size="14" font-style="italic" lengthAdjust="spacing" textLength="38" x="986.25" y="333.3467">SOAP</text><line style="stroke:#181818;stroke-width:0.5;" x1="823.5" x2="1154.5" y1="344.5" y2="344.5"/><ellipse cx="833.5" cy="358.1484" fill="none" rx="3" ry="3" style="stroke:#038048;stroke-width:1.0;"/><text fill="#000000" font-family="sans-serif" font-size="14" lengthAdjust="spacing" textLength="75" x="842.5" y="361.4951">&lt;params&gt;</text><ellipse cx="833.5" cy="374.4453" fill="none" rx="3" ry="3" style="stroke:#038048;stroke-width:1.0;"/><text fill="#000000" font-family="sans-serif" font-size="14" lengthAdjust="spacing" textLength="203" x="842.5" y="377.792">descriptor_kind = KindSOAP</text><line style="stroke:#181818;stroke-width:0.5;" x1="823.5" x2="1154.5" y1="385.0938" y2="385.0938"/><ellipse cx="833.5" cy="398.7422" fill="#84BE84" rx="3" ry="3" style="stroke:#038048;stroke-width:1.0;"/><text fill="#000000" font-family="sans-serif" font-size="14" lengthAdjust="spacing" textLength="307" x="842.5" y="402.0889">void clone_empty(DescriptorKind* d_desc)</text></g><!--class Bispectrum--><g id="elem_Bispectrum"><rect codeLine="52" fill="#F1F1F1" height="96.8906" id="Bispectrum" rx="3.5" ry="3.5" style="stroke:#181818;stroke-width:0.5;" width="333" x="822.5" y="444.5"/><ellipse cx="944.25" cy="460.5" fill="#B4A7E5" rx="11" ry="11" style="stroke:#181818;stroke-width:1.0;"/><path d="M945.2031,457.2813 L946.9219,457.2813 C947.3125,457.2813 947.5,457.25 947.625,457.1719 C947.8906,457.0156 948.0313,456.7344 948.0313,456.4375 C948.0313,456.1719 947.9219,455.9063 947.6875,455.7344 C947.5156,455.625 947.375,455.5938 946.9219,455.5938 L941.7813,455.5938 C941.3438,455.5938 941.2188,455.6094 941.0625,455.7031 C940.8125,455.8594 940.6563,456.1563 940.6563,456.4375 C940.6563,456.7188 940.7969,456.9688 941.0156,457.1406 C941.1719,457.25 941.3594,457.2813 941.7813,457.2813 L943.5,457.2813 L943.5,463.7969 L941.7813,463.7969 C941.3438,463.7969 941.2188,463.8125 941.0625,463.9219 C940.8125,464.0781 940.6563,464.3594 940.6563,464.6563 C940.6563,464.9063 940.7969,465.1719 941.0156,465.3281 C941.1719,465.4531 941.375,465.5 941.7813,465.5 L946.9219,465.5 C947.6719,465.5 948.0313,465.2188 948.0313,464.6563 C948.0313,464.375 947.9219,464.125 947.6875,463.9531 C947.5156,463.8281 947.375,463.7969 946.9219,463.7969 L945.2031,463.7969 L945.2031,457.2813 Z " fill="#000000"/><text fill="#000000" font-family="sans-serif" font-size="14" font-style="italic" lengthAdjust="spacing" textLength="81" x="964.75" y="465.3467">Bispectrum</text><line style="stroke:#181818;stroke-width:0.5;" x1="823.5" x2="1154.5" y1="476.5" y2="476.5"/><ellipse cx="833.5" cy="490.1484" fill="none" rx="3" ry="3" style="stroke:#038048;stroke-width:1.0;"/><text fill="#000000" font-family="sans-serif" font-size="14" lengthAdjust="spacing" textLength="75" x="842.5" y="493.4951">&lt;params&gt;</text><ellipse cx="833.5" cy="506.4453" fill="none" rx="3" ry="3" style="stroke:#038048;stroke-width:1.0;"/><text fill="#000000" font-family="sans-serif" font-size="14" lengthAdjust="spacing" textLength="247" x="842.5" y="509.792">descriptor_kind = KindBispectrum</text><line style="stroke:#181818;stroke-width:0.5;" x1="823.5" x2="1154.5" y1="517.0938" y2="517.0938"/><ellipse cx="833.5" cy="530.7422" fill="#84BE84" rx="3" ry="3" style="stroke:#038048;stroke-width:1.0;"/><text fill="#000000" font-family="sans-serif" font-size="14" lengthAdjust="spacing" textLength="307" x="842.5" y="534.0889">void clone_empty(DescriptorKind* d_desc)</text></g><!--class Xi--><g id="elem_Xi"><rect codeLine="46" fill="#F1F1F1" height="96.8906" id="Xi" rx="3.5" ry="3.5" style="stroke:#181818;stroke-width:0.5;" width="333" x="822.5" y="576.5"/><ellipse cx="977.75" cy="592.5" fill="#B4A7E5" rx="11" ry="11" style="stroke:#181818;stroke-width:1.0;"/><path d="M978.7031,589.2813 L980.4219,589.2813 C980.8125,589.2813 981,589.25 981.125,589.1719 C981.3906,589.0156 981.5313,588.7344 981.5313,588.4375 C981.5313,588.1719 981.4219,587.9063 981.1875,587.7344 C981.0156,587.625 980.875,587.5938 980.4219,587.5938 L975.2813,587.5938 C974.8438,587.5938 974.7188,587.6094 974.5625,587.7031 C974.3125,587.8594 974.1563,588.1563 974.1563,588.4375 C974.1563,588.7188 974.2969,588.9688 974.5156,589.1406 C974.6719,589.25 974.8594,589.2813 975.2813,589.2813 L977,589.2813 L977,595.7969 L975.2813,595.7969 C974.8438,595.7969 974.7188,595.8125 974.5625,595.9219 C974.3125,596.0781 974.1563,596.3594 974.1563,596.6563 C974.1563,596.9063 974.2969,597.1719 974.5156,597.3281 C974.6719,597.4531 974.875,597.5 975.2813,597.5 L980.4219,597.5 C981.1719,597.5 981.5313,597.2188 981.5313,596.6563 C981.5313,596.375 981.4219,596.125 981.1875,595.9531 C981.0156,595.8281 980.875,595.7969 980.4219,595.7969 L978.7031,595.7969 L978.7031,589.2813 Z " fill="#000000"/><text fill="#000000" font-family="sans-serif" font-size="14" font-style="italic" lengthAdjust="spacing" textLength="14" x="998.25" y="597.3467">Xi</text><line style="stroke:#181818;stroke-width:0.5;" x1="823.5" x2="1154.5" y1="608.5" y2="608.5"/><ellipse cx="833.5" cy="622.1484" fill="none" rx="3" ry="3" style="stroke:#038048;stroke-width:1.0;"/><text fill="#000000" font-family="sans-serif" font-size="14" lengthAdjust="spacing" textLength="75" x="842.5" y="625.4951">&lt;params&gt;</text><ellipse cx="833.5" cy="638.4453" fill="none" rx="3" ry="3" style="stroke:#038048;stroke-width:1.0;"/><text fill="#000000" font-family="sans-serif" font-size="14" lengthAdjust="spacing" textLength="178" x="842.5" y="641.792">descriptor_kind = KindXi</text><line style="stroke:#181818;stroke-width:0.5;" x1="823.5" x2="1154.5" y1="649.0938" y2="649.0938"/><ellipse cx="833.5" cy="662.7422" fill="#84BE84" rx="3" ry="3" style="stroke:#038048;stroke-width:1.0;"/><text fill="#000000" font-family="sans-serif" font-size="14" lengthAdjust="spacing" textLength="307" x="842.5" y="666.0889">void clone_empty(DescriptorKind* d_desc)</text></g><!--reverse link DescriptorKind to SymmetryFunctions--><g id="link_DescriptorKind_SymmetryFunctions"><path codeLine="29" d="M773.2615,361.8329 C783.1205,356.5079 776.836,359.279 786,353 C811.028,335.851 798.734,314.472 822,295 C829.611,288.63 837.912,282.822 846.613,277.534 " fill="none" id="DescriptorKind-backto-SymmetryFunctions" style="stroke:#454645;stroke-width:1.0;stroke-dasharray:7.0,7.0;"/><polygon fill="none" points="757.424,370.387,776.1129,367.1121,770.4102,356.5537,757.424,370.387" style="stroke:#454645;stroke-width:1.0;"/></g><!--reverse link DescriptorKind to SOAP--><g id="link_DescriptorKind_SOAP"><path codeLine="30" d="M780.0982,384.061 C800.7192,381.773 802.963,381.525 822.177,379.394 " fill="none" id="DescriptorKind-backto-SOAP" style="stroke:#454645;stroke-width:1.0;stroke-dasharray:7.0,7.0;"/><polygon fill="none" points="762.208,386.046,780.7599,390.0244,779.4365,378.0976,762.208,386.046" style="stroke:#454645;stroke-width:1.0;"/></g><!--reverse link DescriptorKind to Bispectrum--><g id="link_DescriptorKind_Bispectrum"><path codeLine="31" d="M780.0982,469.939 C800.7192,472.227 802.963,472.475 822.177,474.606 " fill="none" id="DescriptorKind-backto-Bispectrum" style="stroke:#454645;stroke-width:1.0;stroke-dasharray:7.0,7.0;"/><polygon fill="none" points="762.208,467.954,779.4365,475.9024,780.7599,463.9756,762.208,467.954" style="stroke:#454645;stroke-width:1.0;"/></g><!--reverse link DescriptorKind to Xi--><g id="link_DescriptorKind_Xi"><path codeLine="32" d="M580.1841,489.2897 C668.2771,518.6057 757.666,548.351 841.987,576.4109 " fill="none" id="DescriptorKind-backto-Xi" style="stroke:#454645;stroke-width:1.0;stroke-dasharray:7.0,7.0;"/><polygon fill="none" points="563.105,483.606,578.2896,494.9827,582.0787,483.5966,563.105,483.606" style="stroke:#454645;stroke-width:1.0;"/></g><!--SRC=[fPDBJiCm48RtESMmAoNA0Qg2L8JO804Ic-uiDnxQWTYERATGGU-EapHrqeHNwutZUVYV-JmvSokK26jQ6AvSbE6p0wV1q7BbG931r95MaU8IRSvJXFlcQpAvGPiQofqsy161Nsd6hONRGbL9jZQMwsAjIK2gPLuuP9RKCaF6dPQZy-6Odls5ftf1NFKSIyC5eN8_tgeAoVuKs0Jj7Dkesj3dmspDAUEB34FReS4xKk9f8oKwizdtt_5UayqzJ5F8RjB3xB5Zc5DRkIOQ5Ck8e4hAmHi9jzfR1ee4iVzahpuz-ePuUHc9zxZSLKN7nfN2k2oSi3afbf5rzK4nXNvIOX2wyA8mJhKsmiRDiPHk8UxsCVPNa0ksKP8a0ViswaR3z3D9eCzuCAg4EkHeFSAGsxEFQgnedijXxycrHdgQSyEblGgM0z1m-SjOxFXdMY53cRlDw12GO87Wzh0st-GnvRG7xhGAvdI4_cw-JrSFRtb45GD_up-h-G80]--></g></svg>